<svg width="71" height="82" viewBox="0 0 71 82" fill="none" xmlns="http://www.w3.org/2000/svg">
<path d="M33.998 42.1939V0H47.2636C47.2022 9.4998 47.1162 31.3493 47.2636 42.7491C45.6054 58.2942 33.998 62.5507 29.0233 64.0311C19.811 66.4369 9.67754 61.9955 5.80839 56.8138C-2.6669 47.1906 -0.0874641 36.8272 2.49197 29.9799C7.06126 20.6528 17.4159 17.8276 22.022 17.5808H32.524V30.7201C31.6028 30.5968 28.0652 30.424 21.285 30.7201C14.21 31.7565 12.8097 39.5414 12.994 43.3043C13.6081 45.8335 16.2735 51.0399 22.022 51.632C30.571 52.5203 33.568 45.7101 33.998 42.1939Z" fill="white"/>
<path d="M48.5533 29.9799V17.5808C49.916 17.5808 55.0019 17.0256 61.2663 20.5418C67.5306 24.0579 68.6361 31.2753 68.0834 35.5317C67.5306 39.7881 64.03 44.2296 59.0553 47.3756C60.345 47.3756 64.7669 50.5217 67.1621 52.9275C69.5573 55.3333 73.6107 65.5116 68.6361 72.1738C62.3717 81.0568 53.7122 82.1671 43.2102 81.9821C30.8658 81.0568 25.8911 74.2095 23.496 66.0668C25.7069 66.2519 32.524 65.5116 37.3144 61.8104C37.0196 65.3636 38.9112 68.3492 39.8938 69.3979C41.1835 70.8784 44.9053 73.5063 49.4746 72.1738C55.9231 70.3232 57.0286 64.0311 56.2916 60.3299C55.5547 56.6287 50.9485 52.7424 45.0527 53.4827C47.2636 50.0775 48.3077 45.8952 48.5533 44.2296C50.0887 44.353 53.528 43.8965 55.0019 41.0836C56.8444 37.5674 55.3704 33.8662 53.7122 32.0156C52.3856 30.5351 49.7202 30.0416 48.5533 29.9799Z" fill="white"/>
</svg>
